<svg xmlns="http://www.w3.org/2000/svg" width="24" height="24" fill="none" id="messenger"><path fill="#000" fill-rule="evenodd" d="M12 3.5c-4.751 0-8.5 3.412-8.5 7.5 0 2.434 1.318 4.617 3.394 5.996a.5.5 0 0 1 .222.375l.31 3.72 3.605-2.523a.5.5 0 0 1 .32-.09c.214.015.43.022.649.022 4.751 0 8.5-3.412 8.5-7.5S16.751 3.5 12 3.5ZM2.5 11c0-4.748 4.31-8.5 9.5-8.5s9.5 3.752 9.5 8.5-4.31 8.5-9.5 8.5c-.18 0-.36-.005-.538-.013L7.287 22.41a.5.5 0 0 1-.785-.369l-.363-4.35C3.937 16.145 2.5 13.731 2.5 11Z" clip-rule="evenodd"></path><path fill="#000" fill-rule="evenodd" d="M10.11 7.688a.5.5 0 0 1 .667-.104l2.759 1.839 3.74-1.87a.5.5 0 0 1 .628.741l-4 5.5a.5.5 0 0 1-.681.122l-2.787-1.858-3.76 1.41a.5.5 0 0 1-.566-.78l4-5Zm5.78 1.676-2.166 1.083a.5.5 0 0 1-.501-.031L10.604 8.67l-2.579 3.224 2.3-.862a.5.5 0 0 1 .452.052l2.601 1.734 2.512-3.454Z" clip-rule="evenodd"></path></svg>