<?xml version="1.0" encoding="UTF-8"?>
<svg xmlns="http://www.w3.org/2000/svg" width="75" height="75" viewBox="0 0 75 75" fill="none">
  <path d="M73.7501 48.7502C73.0597 48.7502 72.5001 49.3099 72.5001 50.0001V51.2245L38.7503 5.83669V1.25043C38.7503 0.560055 38.1907 0.000488281 37.5004 0.000488281C36.81 0.000488281 36.2504 0.560055 36.2504 1.25043V5.83698L32.0998 11.4187C31.3445 7.3377 27.9956 4.23914 23.8685 3.80247C19.7413 3.3658 15.818 5.69489 14.2255 9.52734C12.2659 7.55303 9.30815 6.95787 6.73765 8.02075C4.16716 9.08364 2.49344 11.5939 2.50047 14.3754C2.5012 14.7881 2.54119 15.2001 2.62015 15.6052C0.607611 16.6943 -0.408398 19.011 0.153659 21.2292C0.715716 23.4474 2.71214 25.0008 5.00051 25.0002H22.0007L2.50047 51.2245V50.0001C2.50047 49.3098 1.9409 48.7502 1.25053 48.7502C0.560151 48.7502 0.0005835 49.3099 0.0005835 50.0001V55.0001C0.000437016 55.539 0.345992 56.0174 0.857512 56.1867C1.36918 56.3561 1.93182 56.1784 2.25335 55.746L7.50054 48.6894V52.5002C7.50274 54.5703 9.18041 56.248 11.2505 56.2502H29.4485C29.1348 56.6709 28.8616 57.12 28.6321 57.5917C28.0865 58.6998 27.8008 59.9178 27.7972 61.1531C27.8254 63.6061 28.9238 65.9245 30.804 67.5001H27.5005C25.4295 67.5001 23.7505 69.1789 23.7505 71.2501C23.7505 73.3212 25.4294 75.0001 27.5005 75.0001H47.5002C49.5712 75.0001 51.2502 73.3211 51.2502 71.2501C51.2502 69.1791 49.5712 67.5001 47.5002 67.5001H44.5042C44.6332 67.3879 44.7677 67.2815 44.8903 67.1626C46.4849 65.6153 47.415 63.5083 47.4837 61.2874V61.2868C47.5077 60.8234 47.5053 60.359 47.4763 59.8958C47.4132 58.6588 47.1971 57.4342 46.8331 56.2502H63.7501C65.8202 56.248 67.4978 54.5703 67.5 52.5002V48.6894L72.7472 55.746C73.0688 56.1784 73.6314 56.3561 74.1431 56.1867C74.6547 56.0174 75.0002 55.5391 75.0002 55.0002V50.0003C75 49.3098 74.4404 48.7502 73.7501 48.7502ZM5.00051 22.5004C3.62034 22.499 2.50194 21.3805 2.50047 20.0003C2.49476 18.8466 3.28738 17.8422 4.41091 17.5797C4.75793 17.4982 5.05368 17.2725 5.22375 16.9593C5.39381 16.6461 5.42209 16.2751 5.30153 15.9398C5.11095 15.4399 5.00915 14.9105 5.00065 14.3755C4.99362 12.1872 6.60933 10.3326 8.77788 10.0397C10.9464 9.74692 12.9963 11.1066 13.5699 13.2183C13.7336 13.8153 14.3095 14.2027 14.9242 14.129C15.5388 14.0553 16.007 13.5429 16.0249 12.9241C16.1325 9.16875 19.2368 6.19616 22.9934 6.25123C26.7499 6.30631 29.7656 9.36855 29.7633 13.1256C29.7627 13.7206 29.6815 14.3128 29.522 14.886L23.8598 22.5005L5.00051 22.5004ZM47.5002 70C48.1906 70 48.7502 70.5595 48.7502 71.2499C48.7502 71.9403 48.1906 72.4999 47.5002 72.4999H27.5004C26.81 72.4999 26.2504 71.9403 26.2504 71.2499C26.2504 70.5595 26.81 70 27.5004 70H47.5002ZM37.5461 63.0061C37.6114 63.1831 37.8103 63.7202 38.9687 64.0589C39.3083 64.1594 39.6603 64.2114 40.0143 64.2133C40.666 64.2227 41.3094 64.0665 41.8845 63.7598C42.048 65.1054 41.3905 66.4182 40.2151 67.0933C39.389 67.3609 38.5262 67.4982 37.6578 67.5001C37.4431 67.5001 37.2317 67.4879 37.0217 67.4723C36.141 67.0577 33.8138 65.8006 33.7968 64.0656C33.8213 63.3507 34.1564 62.682 34.7148 62.2346C34.9959 62.0062 35.291 61.7954 35.598 61.6035C36.0014 61.3495 36.3875 61.0692 36.754 60.7643C37.5377 60.1383 38.1091 59.2857 38.3904 58.3229C38.4708 58.5081 38.5357 58.6995 38.5845 58.8954C38.6259 59.0597 38.6528 59.2274 38.6645 59.3965C38.5977 60.3076 38.2512 61.176 37.6726 61.883C37.4563 62.2167 37.4094 62.6326 37.5461 63.0061ZM44.9874 61.1531C44.9498 62.0122 44.7441 62.8557 44.3819 63.6357C44.3578 63.415 44.3205 63.196 44.2697 62.9798C44.1664 62.5586 44.0206 62.1489 43.8345 61.7572C43.7252 61.5237 43.5988 61.2987 43.4561 61.084C43.4378 61.0572 43.356 60.9514 43.2566 60.8374L43.1644 60.7307C42.9021 60.3559 42.4559 60.1545 42.0014 60.2054C41.5467 60.2562 41.1562 60.5514 40.9832 60.9748C40.9753 60.9951 40.9673 61.0151 40.9606 61.0346C40.9234 61.1358 40.8935 61.2354 40.8648 61.3349C40.8544 61.3684 40.8462 61.4027 40.8403 61.4374C40.8091 61.482 40.7686 61.519 40.7212 61.5461C41.0583 60.8089 41.2079 59.9997 41.1565 59.1908C41.1333 58.8869 41.0844 58.5855 41.01 58.2899C40.6196 56.7469 39.6713 55.4033 38.3482 54.5186C38.3293 54.5057 38.2414 54.4544 38.1736 54.416C37.9479 54.2019 37.6504 54.0797 37.3392 54.0737C36.6524 54.0683 36.0867 54.6116 36.0642 55.298V55.3036C36.0594 55.5684 36.0642 55.8327 36.0698 56.0971C36.1035 56.6107 36.0755 57.1264 35.9862 57.6333C35.8378 58.1256 35.5366 58.5577 35.1262 58.8674C34.8389 59.1029 34.5367 59.3196 34.2216 59.5162C33.8267 59.7655 33.448 60.0394 33.0876 60.3365C31.9693 61.2628 31.3145 62.6338 31.2968 64.0859C31.2977 64.1834 31.3201 64.2786 31.3274 64.3755C30.6635 63.4315 30.3039 62.3071 30.297 61.1531C30.3003 60.3009 30.498 59.4606 30.8751 58.6964C31.1178 58.1798 31.4412 57.705 31.8334 57.2902C32.4401 56.7469 32.863 56.0287 33.0438 55.2346C33.0561 55.1596 33.0547 55.0855 33.0612 55.0108L33.0634 55.0002L33.0625 54.9955C33.1111 53.6684 32.3792 52.4353 31.1909 51.8422C31.767 51.7692 32.3516 51.8023 32.9157 51.9399C33.3375 52.032 33.7769 51.9002 34.0781 51.5911C34.3794 51.282 34.4999 50.8394 34.397 50.4201C33.993 48.7776 34.0516 45.8095 36.8328 45.1051C37.4731 44.9632 38.1368 44.9638 38.7768 45.107C38.5946 45.5572 38.4912 46.0353 38.471 46.5206C38.496 48.3509 39.2409 50.0976 40.5443 51.3827C41.7916 52.5944 42.8861 53.9539 43.8036 55.4312C44.5417 56.86 44.9445 58.4382 44.9816 60.046C45.0044 60.4145 45.0065 60.7843 44.9874 61.1531ZM45.6936 53.7501C44.7245 52.2755 43.6059 50.9047 42.3556 49.6596C41.5307 48.8604 41.0356 47.7806 40.9682 46.6341C40.982 46.1478 41.2049 45.691 41.5798 45.3811L41.5902 45.3726C41.9381 45.0622 42.0843 44.5839 41.9694 44.132C41.8546 43.6801 41.4978 43.3297 41.0439 43.2229C40.9127 43.1796 40.6363 43.0782 40.3915 42.9886C40.0881 42.8781 39.8191 42.786 39.7763 42.775C38.617 42.4445 37.3928 42.4126 36.2179 42.6823C33.2874 43.4728 31.3763 46.2885 31.7239 49.3039C30.3395 49.2663 28.9982 49.7876 28.0027 50.7504C27.5691 51.1831 27.4006 51.8151 27.5615 52.4063C27.729 53.0036 28.2036 53.4657 28.8054 53.6173C28.9649 53.6577 29.1281 53.7054 29.2759 53.7503H18.3958L32.0371 29.6775C32.0469 29.6616 32.056 29.6451 32.0647 29.6293L37.5004 20.0362L42.9444 29.6432L42.9636 29.6773L56.6049 53.7501H45.6936ZM17.5004 50.2584V46.3392C17.4967 45.0124 18.0239 43.7393 18.9646 42.8036L25.3343 36.4339L17.5004 50.2584ZM49.6661 36.4339L56.0358 42.8036C56.9764 43.7393 57.5037 45.0125 57.5001 46.3392V50.2584L49.6661 36.4339ZM65.0002 52.5002C64.9993 53.1901 64.4402 53.7492 63.7502 53.7501H60.0002V46.3392C60.0058 44.349 59.2148 42.4393 57.8036 41.0359L45.0425 28.2743L38.7503 17.1703V13.7503C38.7503 13.0599 38.1907 12.5004 37.5004 12.5004C36.81 12.5004 36.2504 13.0601 36.2504 13.7503V17.1703L29.9582 28.2743L17.1972 41.0359C15.7859 42.4394 14.9949 44.3491 15.0005 46.3392V53.7501H11.2505C10.5606 53.7492 10.0015 53.1901 10.0006 52.5002V45.3275L31.6223 16.2496C31.6318 16.2386 31.6388 16.2266 31.6479 16.2152L37.5002 8.34478L65 45.3273V52.5002H65.0002Z" fill="#127FAF"></path>
  <path d="M55.7649 21.7102V21.7103C55.72 21.7367 55.6769 21.7661 55.6359 21.7982C55.4337 21.8873 55.2723 22.049 55.1838 22.2513C55.1534 22.2901 55.1255 22.3308 55.1003 22.3731L55.0984 22.3819C55.0401 22.5246 55.0088 22.6769 55.0059 22.831C55.0056 22.8407 55.0001 22.8502 55.0001 22.8598C55.0001 22.8825 55.0122 22.9049 55.0133 22.9277C55.0177 23.0678 55.0456 23.206 55.0957 23.3369L55.0979 23.3478C55.1551 23.4791 55.2347 23.5995 55.3332 23.7035C55.3571 23.7296 55.3863 23.7492 55.4125 23.7734C55.4992 23.8534 55.5969 23.9206 55.7028 23.9727C55.7245 23.9834 55.7383 24.0029 55.7608 24.0126C57.2986 24.6679 58.9537 25.004 60.6253 25.0002C67.5287 25.0002 73.1251 19.4038 73.1251 12.5003C73.1251 5.59682 67.5286 0.000269489 60.6251 0.000269489C58.9633 -0.00309963 57.3178 0.329418 55.7875 0.977901L55.7727 0.98332L55.7605 0.987715C55.7238 1.01013 55.6882 1.03444 55.654 1.06081C55.5489 1.11267 55.4516 1.17946 55.3655 1.259C55.3009 1.33298 55.2455 1.41427 55.2004 1.50143C55.1623 1.54904 55.128 1.59943 55.0977 1.65231L55.0955 1.6633C55.0454 1.79411 55.0176 1.93239 55.0132 2.07243C55.012 2.09528 55 2.11769 55 2.14039C55 2.14992 55.0054 2.15958 55.0057 2.1691C55.0086 2.32321 55.0401 2.4754 55.0983 2.61822L55.1002 2.62701C55.1257 2.66979 55.1538 2.7108 55.1844 2.74991C55.2339 2.8482 55.2965 2.93946 55.3703 3.0212C55.4509 3.09342 55.5408 3.15465 55.6375 3.20313C55.6779 3.23477 55.7206 3.26378 55.7648 3.28985C59.4679 4.85239 61.8749 8.48079 61.8749 12.5C61.8751 16.5192 59.468 20.1476 55.7649 21.7102ZM64.3751 12.5001C64.3739 8.60149 62.5457 4.92871 59.4358 2.5775C63.124 2.13439 66.7537 3.77295 68.8609 6.83197C70.968 9.89098 71.2055 13.8664 69.4771 17.1544C67.7488 20.4425 64.3398 22.501 60.6251 22.5C60.2276 22.4976 59.8304 22.4717 59.4358 22.4225C62.5457 20.0714 64.3739 16.3988 64.3751 12.5001Z" fill="#127FAF"></path>
  <path d="M16.4001 61.2589C15.9569 61.2054 15.5186 61.3925 15.2507 61.7496L13.7504 63.75V59.9997C13.7504 59.3093 13.1907 58.7498 12.5005 58.7498C11.8102 58.7498 11.2505 59.3093 11.2505 59.9997V63.75L9.75023 61.7496C9.33597 61.1975 8.55243 61.0857 8.00034 61.5C7.44824 61.9142 7.33647 62.6976 7.75073 63.2499L11.5007 68.2498C11.5164 68.2709 11.5426 68.2792 11.5596 68.299C11.6422 68.3928 11.7387 68.4735 11.8458 68.5381C11.8874 68.5703 11.9311 68.5997 11.9765 68.6263C12.3065 68.7909 12.6947 68.7909 13.0246 68.6263C13.07 68.5997 13.1136 68.5703 13.1552 68.5381C13.2623 68.4735 13.3588 68.3929 13.4415 68.299C13.4585 68.2792 13.4847 68.2709 13.5004 68.2498L17.2503 63.2499C17.5184 62.8928 17.5754 62.4198 17.4 62.009C17.2245 61.5984 16.8434 61.3125 16.4001 61.2589Z" fill="#127FAF"></path>
  <path d="M66.4 61.2589C65.9567 61.2054 65.5184 61.3925 65.2505 61.7496L63.7501 63.75V59.9997C63.7501 59.3093 63.1905 58.7498 62.5002 58.7498C61.8098 58.7498 61.2502 59.3093 61.2502 59.9997V63.75L59.7499 61.7496C59.3357 61.1975 58.5521 61.0857 58 61.5C57.4479 61.9142 57.3362 62.6976 57.7504 63.2499L61.5004 68.2498C61.5161 68.2709 61.5423 68.2792 61.5593 68.299C61.6419 68.3929 61.7384 68.4735 61.8455 68.5381C61.8871 68.5703 61.9308 68.5997 61.9762 68.6263C62.3062 68.7909 62.6944 68.7909 63.0243 68.6263C63.0697 68.5997 63.1133 68.5703 63.1549 68.5381C63.262 68.4735 63.3585 68.3929 63.4412 68.299C63.4582 68.2792 63.4844 68.2709 63.5 68.2498L67.25 63.2499C67.5179 62.8928 67.5751 62.4198 67.3997 62.009C67.2244 61.5983 66.8434 61.3125 66.4 61.2589Z" fill="#127FAF"></path>
</svg>
