<?xml version="1.0" encoding="UTF-8"?>
<!-- Generator: Adobe Illustrator 22.1.0, SVG Export Plug-In . SVG Version: 6.00 Build 0)  -->
<svg xmlns="http://www.w3.org/2000/svg" xmlns:xlink="http://www.w3.org/1999/xlink" version="1.1" id="Layer_1_1_" x="0px" y="0px" viewBox="0 0 64 64" style="enable-background:new 0 0 64 64;" xml:space="preserve" width="512" height="512">
<g>
	<path d="M47.419,47h-0.161l-3.552-1.974l7.873-5.511l4.367,9.828l1.362-2.725c0.281-0.562,0.746-1.027,1.31-1.31   C59.022,45.106,59.475,45,59.927,45h2.757l-6.103-11.188C55.972,32.694,54.803,32,53.53,32c-1.325,0-2.517,0.736-3.109,1.922   l-0.136,0.272l-12.246,4.374l-0.555-2.497c-0.374-1.683-1.216-3.217-2.434-4.435c-0.446-0.446-0.946-0.837-1.476-1.181   C35.01,29.692,36,28.2,36,26.465c0-1.211-0.472-2.351-1.329-3.207l-10.929-10.93c-0.344-0.344-0.742-0.607-1.164-0.821   C22.84,11.062,23,10.552,23,10c0-1.654-1.346-3-3-3s-3,1.346-3,3c0,0.059,0.014,0.114,0.017,0.173l-1.555-2.799   c-0.639-1.151-1.636-2.081-2.812-2.669L11.795,1H5.743l0.857,3.716C4.437,5.818,3,8.071,3,10.56c0,1.112,0.286,2.214,0.826,3.186   l1.249,2.248C4.409,16.486,4,17.264,4,18.123v0.218C4,19.807,5.193,21,6.659,21c0.36,0,0.712-0.072,1.048-0.215l0.489-0.209   c0.829,0.659,1.805,1.103,2.847,1.301c0.204,2.516,1.274,4.854,3.079,6.659L15.586,30L12.5,33.086l-2.5-2.5L4.586,36l2,2l-3,3   L9,46.414l3-3l2,2L19.414,40l-2.5-2.5l3.061-3.061l12.419,13.306c0.662,0.71,1.438,1.289,2.305,1.723   c0.644,0.321,1.33,0.558,2.04,0.7l8.084,1.616l-2.205,11.024l2.487-1.243c1.479-0.74,3.311-0.74,4.789,0L52,62.618V51.581   c0-0.493-0.079-0.98-0.235-1.449C51.14,48.259,49.394,47,47.419,47z M53.53,34c0.541,0,1.037,0.295,1.295,0.769l4.509,8.268   c-0.56,0.068-1.108,0.232-1.611,0.484c-0.619,0.31-1.168,0.75-1.606,1.283l-3.185-7.165l-0.854-2.562l0.13-0.261   C52.461,34.312,52.968,34,53.53,34z M50.375,36.285l0.441,1.323l-9.053,6.338l-2.884-1.602l-0.402-1.809L50.375,36.285z M34,26.465   C34,27.862,32.862,29,31.464,29h-1.05l-9-9L25,16.414l8.257,8.258C33.736,25.151,34,25.788,34,26.465z M20.536,13   c0.678,0,1.314,0.264,1.793,0.742L23.586,15L20,18.586l-0.268-0.268L19.46,18h-0.045l-0.672-0.672   C18.264,16.849,18,16.212,18,15.535C18,14.138,19.138,13,20.536,13z M20,9c0.551,0,1,0.448,1,1s-0.449,1-1,1s-1-0.448-1-1   S19.449,9,20,9z M7.07,6.751l1.763,7.639l-1.932,0.773l-1.327-2.388C5.198,12.099,5,11.333,5,10.56C5,9.002,5.812,7.58,7.07,6.751z    M6,18.341v-0.218c0-0.271,0.163-0.511,0.415-0.611l4.752-1.901L8.257,3h1.948l2.754,11.938C12.986,15.055,13,15.175,13,15.295   c0,0.636-0.377,1.208-0.961,1.458l-5.117,2.193C6.498,19.122,6,18.794,6,18.341z M12.826,18.591C14.147,18.025,15,16.731,15,15.295   c0-0.271-0.031-0.542-0.092-0.807l-1.536-6.656c0.123,0.164,0.242,0.332,0.342,0.512l2.71,4.878   c0.039,0.07,0.076,0.141,0.111,0.213l0.006-0.003C16.207,14.064,16,14.772,16,15.535c0,0.711,0.18,1.388,0.488,2.007   C15.699,19.058,14.148,20,12.44,20h-0.169c-0.637,0-1.253-0.143-1.821-0.391L12.826,18.591z M15.536,27.121   c-1.407-1.407-2.266-3.214-2.479-5.163c0.685-0.064,1.348-0.223,1.965-0.487c0.051,0.64,0.282,1.259,0.685,1.762l2.954,3.692   L17,28.586L15.536,27.121z M13.328,35.086l8.012-8.012l-4.072-5.091C17.095,21.768,17,21.497,17,21.221   C17,20.548,17.548,20,18.221,20h0.319l5.086,5.934c0.241,0.281,0.374,0.64,0.374,1.01c0,0.414-0.161,0.804-0.454,1.097   l-8.632,8.632C14.702,36.884,14.421,37,14.121,37C13.503,37,13,36.497,13,35.879C13,35.584,13.12,35.295,13.328,35.086z M9,43.586   L6.414,41L8,39.414L10.586,42L9,43.586z M14,42.586L7.414,36L10,33.414l1.25,1.25C11.089,35.047,11,35.46,11,35.879   C11,37.6,12.4,39,14.121,39c0.426,0,0.837-0.087,1.217-0.248L16.586,40L14,42.586z M24.96,29.454   c0.568-0.568,0.904-1.297,0.998-2.082L28.586,30l-5.182,5.182l-2.014-2.158L24.96,29.454z M35.594,47.679   c-0.654-0.326-1.238-0.764-1.738-1.299l-9.086-9.735l5.5-5.5l0.612,0.204c1.032,0.343,1.984,0.932,2.754,1.701   c0.949,0.949,1.604,2.144,1.896,3.454l1.589,7.152l8.667,4.814l-0.458,1.376l-8.198-1.64C36.597,48.1,36.079,47.922,35.594,47.679z    M50,59.438c-1.482-0.533-3.137-0.577-4.644-0.118l1.612-8.064l0.744-2.233c0.988,0.113,1.834,0.78,2.155,1.74   C49.956,51.028,50,51.303,50,51.581V59.438z"></path>
	<path d="M26.948,54.708C25.998,53.622,24.626,53,23.185,53H23v-1.382l2.342-1.171C26.365,49.936,27,48.907,27,47.764V45h-2v2.764   c0,0.381-0.212,0.724-0.553,0.895L23,49.382V43h-2v5.382l-1.447-0.724C19.212,47.487,19,47.145,19,46.764V45h-2v1.764   c0,1.144,0.635,2.172,1.658,2.684L21,50.618V53H4c-1.654,0-3,1.346-3,3v7h40v-2h-8.546L26.948,54.708z M18,61v-2h-2v2H3v-5   c0-0.552,0.449-1,1-1h7v2h2v-2h10.185c0.865,0,1.688,0.373,2.258,1.024L29.796,61H18z"></path>
	<path d="M59,61v-1.382l2.342-1.171C62.365,57.936,63,56.907,63,55.764V53h-2v2.764c0,0.381-0.212,0.724-0.553,0.895L59,57.382V51   h-2v10h-3v2h10v-2H59z"></path>
	<rect x="5" y="57" width="2" height="2"></rect>
	<rect x="21" y="57" width="2" height="2"></rect>
	<path d="M46,32c1.654,0,3-1.346,3-3s-1.346-3-3-3s-3,1.346-3,3S44.346,32,46,32z M46,28c0.551,0,1,0.448,1,1s-0.449,1-1,1   s-1-0.448-1-1S45.449,28,46,28z"></path>
	<rect x="45" y="22" width="2" height="2"></rect>
	<rect x="45" y="18" width="2" height="2"></rect>
	<path d="M32,15c1.654,0,3-1.346,3-3s-1.346-3-3-3s-3,1.346-3,3S30.346,15,32,15z M32,11c0.551,0,1,0.448,1,1s-0.449,1-1,1   s-1-0.448-1-1S31.449,11,32,11z"></path>
	<rect x="31" y="5" width="2" height="2"></rect>
	<rect x="31" y="1" width="2" height="2"></rect>
	<path d="M60,15c1.654,0,3-1.346,3-3s-1.346-3-3-3s-3,1.346-3,3S58.346,15,60,15z M60,11c0.551,0,1,0.448,1,1s-0.449,1-1,1   s-1-0.448-1-1S59.449,11,60,11z"></path>
	<rect x="59" y="5" width="2" height="2"></rect>
	<rect x="59" y="1" width="2" height="2"></rect>
</g>
</svg>
