<?xml version="1.0" encoding="UTF-8"?>
<svg xmlns="http://www.w3.org/2000/svg" width="38" height="38" viewBox="0 0 38 38" fill="none">
  <path d="M19 38C29.4934 38 38 29.4934 38 19C38 8.50659 29.4934 0 19 0C8.50659 0 0 8.50659 0 19C0 29.4934 8.50659 38 19 38Z" fill="#262D28"></path>
  <g clip-path="url(#clip0_20_254)">
    <path d="M14.2021 24.9579C14.1393 24.9286 14.0939 24.8956 14.1672 24.8296C14.2126 24.7929 14.2615 24.7599 14.3104 24.7269C14.7679 24.4152 15.1975 24.0742 15.4803 23.5719C15.7178 23.1539 15.6794 22.9082 15.3826 22.6002C13.7272 20.8621 13.0008 18.7831 13.364 16.3263C13.57 14.9403 14.1742 13.7413 15.0543 12.6999C15.5851 12.0692 16.2172 11.5595 16.9087 11.1342C16.9506 11.1085 17.01 11.1012 17.017 11.0352C17.003 10.9985 16.9786 11.0095 16.9576 11.0095C15.7807 11.0095 14.6038 10.9838 13.4303 11.0168C12.3058 11.0535 11.3349 11.9665 11.3384 13.2756C11.3454 17.1 11.3384 20.9245 11.3384 24.7526C11.3384 25.9406 12.201 26.9343 13.329 26.9783C14.2825 27.0186 15.2359 26.9856 16.1928 26.982C16.2626 26.9856 16.3325 26.9893 16.4023 26.9893H21.4453C22.7026 26.9893 23.9598 26.9966 25.2171 26.9893C26.3835 26.9893 27.33 25.9993 27.33 24.7782V24.7562V22.6112C27.33 22.5598 27.3474 22.5048 27.316 22.4498C27.2531 22.4535 27.2287 22.5085 27.1938 22.5452C26.5163 23.2602 25.7165 23.8359 24.8399 24.2429C22.6921 25.2366 20.5059 25.3063 18.2882 24.5069C18.0961 24.4336 17.8866 24.4262 17.6875 24.4776C17.3942 24.5546 17.1043 24.6462 16.8144 24.7379C15.9623 25.0166 15.0927 25.1412 14.2021 24.9579V24.9579ZM16.7341 18.7794C16.7935 18.6987 16.8249 18.6511 16.8598 18.6034C17.3173 17.9947 17.7748 17.386 18.2323 16.7737C18.365 16.5977 18.4978 16.418 18.5816 16.2053C18.6794 15.9633 18.5746 15.736 18.3371 15.648C18.2323 15.615 18.1206 15.6003 18.0088 15.6076C17.3872 15.604 16.762 15.604 16.1404 15.6076C16.0531 15.6076 15.9658 15.6186 15.882 15.6406C15.6864 15.692 15.5677 15.901 15.6165 16.11C15.6515 16.2493 15.7562 16.3593 15.889 16.3923C15.9728 16.4143 16.0601 16.4253 16.1474 16.4217C16.5246 16.4253 16.9052 16.4217 17.2824 16.4253C17.3243 16.4253 17.3767 16.396 17.4081 16.462C17.3767 16.506 17.3453 16.55 17.3138 16.5903C16.7725 17.309 16.2347 18.0314 15.6934 18.7501C15.5607 18.9297 15.4908 19.1277 15.5886 19.3477C15.6864 19.5678 15.8855 19.6081 16.088 19.6228C16.2487 19.6338 16.4128 19.6264 16.577 19.6264C17.1427 19.6264 17.705 19.6301 18.2708 19.6228C18.5711 19.6191 18.7317 19.4284 18.7003 19.1351C18.6759 18.9041 18.5257 18.7831 18.2463 18.7794C17.7539 18.7757 17.2615 18.7794 16.7341 18.7794V18.7794ZM20.7853 16.8507C20.3487 16.451 19.8668 16.4253 19.3953 16.7187C18.8225 17.0707 18.613 17.6464 18.6829 18.3137C18.7492 18.9371 19.0076 19.4468 19.6293 19.6558C20.0169 19.7878 20.3767 19.7401 20.6945 19.4688C20.7783 19.3991 20.8027 19.4138 20.8621 19.4908C20.9773 19.6448 21.1764 19.7034 21.351 19.6338C21.5256 19.5788 21.6409 19.4101 21.6409 19.2194C21.6444 18.4861 21.6479 17.7527 21.6409 17.0193C21.6374 16.726 21.3755 16.539 21.1031 16.5977C20.9529 16.6307 20.8691 16.737 20.7853 16.8507ZM23.2055 18.211C23.1915 19.1277 23.9144 19.8208 24.8224 19.7254C25.6571 19.6374 26.1984 18.9811 26.1705 18.0534C26.1426 17.1367 25.493 16.5097 24.6024 16.539C23.7678 16.5647 23.1775 17.2687 23.2055 18.211V18.211ZM22.8982 17.4814C22.8982 16.9057 22.9016 16.3337 22.8982 15.758C22.8982 15.4646 22.72 15.2813 22.4546 15.285C22.1962 15.2886 22.0251 15.472 22.0216 15.7543C22.0181 15.9267 22.0216 16.0953 22.0216 16.2677V19.1827C22.0216 19.4101 22.1543 19.6081 22.3289 19.6558C22.5699 19.7254 22.8178 19.5751 22.8807 19.3221C22.8912 19.2781 22.8981 19.2341 22.8947 19.1864C22.9016 18.6181 22.8982 18.0497 22.8982 17.4814V17.4814Z" fill="white"></path>
    <path d="M16.1881 26.9864C15.2347 26.9864 14.2778 27.0194 13.3244 26.9827C12.1964 26.935 11.3337 25.9413 11.3337 24.757C11.3337 20.9325 11.3407 17.1081 11.3337 13.28C11.3337 11.9709 12.3081 11.0579 13.4292 11.0249C14.6026 10.9919 15.7795 11.0176 16.9565 11.0176C16.9774 11.0176 17.0054 11.0066 17.0158 11.0432C17.0089 11.1092 16.946 11.1166 16.9076 11.1422C16.2161 11.5676 15.584 12.0773 15.0531 12.7079C14.1765 13.7493 13.5689 14.9447 13.3628 16.3344C12.9996 18.7875 13.7295 20.8702 15.3814 22.6082C15.6748 22.9199 15.7132 23.1619 15.4792 23.5799C15.1963 24.0823 14.7667 24.4233 14.3092 24.735C14.2604 24.7643 14.2115 24.801 14.1626 24.834C14.0892 24.9 14.1346 24.933 14.1975 24.9623C14.2115 24.9953 14.2289 25.0246 14.2499 25.054C14.6515 25.428 15.0322 25.8277 15.4268 26.209C15.6119 26.3887 15.797 26.5757 15.9751 26.7627C16.0484 26.8324 16.1707 26.8544 16.1881 26.9864V26.9864Z" fill="white"></path>
    <path d="M16.1877 26.9857C16.1702 26.8574 16.048 26.8354 15.9747 26.7584C15.7965 26.5677 15.6114 26.3844 15.4263 26.2047C15.0317 25.8234 14.651 25.4237 14.2494 25.0497C14.2285 25.0203 14.211 24.991 14.197 24.958C15.0876 25.1414 15.9572 25.0167 16.8128 24.7417C17.1027 24.65 17.3926 24.5583 17.6859 24.4813C17.885 24.4263 18.0945 24.4373 18.2866 24.5107C20.5008 25.31 22.6871 25.2367 24.8384 24.2467C25.715 23.8396 26.5147 23.2676 27.1923 22.5526C27.2272 22.5159 27.2516 22.4609 27.3145 22.4573C27.3459 22.5086 27.3285 22.5636 27.3285 22.6186V24.7637C27.3355 25.9884 26.3995 26.9857 25.233 26.9967H25.2156C23.9583 27.0041 22.701 26.9967 21.4438 26.9967H16.3972C16.3274 26.9894 16.2575 26.9857 16.1877 26.9857V26.9857Z" fill="white"></path>
    <path d="M16.7325 18.7798C17.2598 18.7798 17.7557 18.7761 18.2481 18.7798C18.524 18.7834 18.6742 18.9044 18.7021 19.1355C18.7336 19.4251 18.5729 19.6195 18.2726 19.6231C17.7068 19.6305 17.1446 19.6268 16.5788 19.6268C16.4147 19.6268 16.254 19.6341 16.0899 19.6231C15.8873 19.6121 15.6883 19.5681 15.5905 19.3481C15.4927 19.1281 15.5626 18.9301 15.6953 18.7504C16.2331 18.0317 16.7744 17.3094 17.3157 16.5907C17.3471 16.5467 17.3786 16.5027 17.41 16.4623C17.3751 16.4 17.3262 16.4293 17.2843 16.4257C16.9071 16.422 16.5264 16.4257 16.1493 16.422C16.062 16.422 15.9747 16.411 15.8908 16.3927C15.6918 16.345 15.5695 16.136 15.6149 15.9307C15.6464 15.7913 15.7511 15.6776 15.8839 15.6446C15.9677 15.6226 16.055 15.6116 16.1423 15.6116C16.7639 15.608 17.389 15.608 18.0107 15.6116C18.1224 15.608 18.2307 15.6226 18.3389 15.652C18.5764 15.7363 18.6777 15.9673 18.5834 16.2093C18.4996 16.4183 18.3669 16.598 18.2342 16.7777C17.7767 17.39 17.3192 17.9987 16.8617 18.6038C16.8233 18.6514 16.7884 18.6991 16.7325 18.7798V18.7798Z" fill="white"></path>
    <path d="M20.7837 16.8507C20.8675 16.737 20.9548 16.6307 21.098 16.6013C21.3739 16.5427 21.6323 16.7297 21.6358 17.023C21.6463 17.7564 21.6428 18.4897 21.6358 19.2231C21.6358 19.4137 21.5171 19.5824 21.3459 19.6374C21.1713 19.7071 20.9723 19.6521 20.857 19.4944C20.7977 19.4174 20.7732 19.4027 20.6894 19.4724C20.3716 19.7438 20.0119 19.7914 19.6242 19.6594C19.0026 19.4467 18.7477 18.9371 18.6778 18.3174C18.6045 17.6464 18.8175 17.0743 19.3902 16.7223C19.8652 16.4253 20.3471 16.451 20.7837 16.8507V16.8507ZM19.5474 18.189C19.5544 18.3504 19.6033 18.5044 19.6941 18.6327C19.8827 18.8967 20.2424 18.9517 20.4973 18.7537C20.5392 18.7207 20.5776 18.6804 20.6126 18.6327C20.8081 18.354 20.8081 17.8957 20.6126 17.617C20.5148 17.474 20.3611 17.3897 20.197 17.386C19.8128 17.3604 19.5439 17.672 19.5474 18.189V18.189ZM23.2039 18.211C23.1759 17.2687 23.7661 16.5647 24.6043 16.539C25.4948 16.5097 26.1444 17.1367 26.1723 18.0534C26.2003 18.9811 25.659 19.6374 24.8243 19.7254C23.9128 19.8208 23.1899 19.1277 23.2039 18.211V18.211ZM24.0804 18.123C24.0735 18.3064 24.1258 18.4861 24.2306 18.6364C24.4227 18.9004 24.7824 18.9517 25.0338 18.7464C25.0723 18.7171 25.1037 18.6804 25.1351 18.6437C25.3377 18.365 25.3377 17.8957 25.1386 17.617C25.0408 17.4777 24.8872 17.3897 24.723 17.386C24.3459 17.364 24.0804 17.6647 24.0804 18.123V18.123ZM22.8965 17.4814C22.8965 18.0497 22.9 18.6181 22.8965 19.1864C22.9 19.4467 22.7045 19.6631 22.4565 19.6704C22.4146 19.6704 22.3692 19.6668 22.3273 19.6558C22.1527 19.6081 22.02 19.4137 22.02 19.1827V16.2677C22.02 16.0953 22.0165 15.9266 22.02 15.7543C22.0235 15.472 22.1946 15.2886 22.453 15.2886C22.7184 15.285 22.8965 15.4683 22.8965 15.7616C22.9 16.3337 22.8965 16.9093 22.8965 17.4814V17.4814Z" fill="white"></path>
    <path d="M19.5473 18.1887C19.5438 17.6719 19.8128 17.3605 20.1934 17.3824C20.3576 17.3898 20.5113 17.4741 20.609 17.617C20.8046 17.8918 20.8046 18.3536 20.609 18.6321C20.4204 18.8959 20.0607 18.9509 19.8058 18.753C19.7639 18.72 19.7255 18.6797 19.6905 18.6321C19.6032 18.5038 19.5543 18.3499 19.5473 18.1887ZM24.0805 18.1227C24.0805 17.6683 24.346 17.3641 24.7231 17.3861C24.8873 17.3898 25.041 17.4777 25.1387 17.617C25.3378 17.8955 25.3378 18.3682 25.1353 18.6431C24.9397 18.9033 24.5765 18.9472 24.3285 18.742C24.2901 18.7127 24.2586 18.6761 24.2307 18.6357C24.1259 18.4855 24.077 18.3059 24.0805 18.1227Z" fill="#262D28"></path>
  </g>
  <defs>
    <clipPath id="clip0_20_254">
      <rect width="16" height="16" fill="white" transform="translate(11.3337 11)"></rect>
    </clipPath>
  </defs>
</svg>
