<?xml version="1.0" encoding="UTF-8"?>
<svg xmlns="http://www.w3.org/2000/svg" width="16" height="16" viewBox="0 0 16 16" fill="none">
  <path d="M12.1644 10.5843C11.6416 10.0682 10.9891 10.0682 10.4697 10.5843C10.0734 10.9772 9.67722 11.3701 9.28767 11.7696C9.18112 11.8795 9.09123 11.9028 8.96137 11.8295C8.705 11.6897 8.43198 11.5765 8.18559 11.4233C7.03691 10.7008 6.07467 9.7719 5.22231 8.72643C4.79946 8.20702 4.42322 7.65099 4.16019 7.02504C4.10692 6.89851 4.11691 6.81528 4.22012 6.71206C4.61634 6.32916 5.00256 5.93628 5.39212 5.5434C5.93483 4.99735 5.93483 4.35808 5.38879 3.80871C5.07914 3.49573 4.76949 3.18942 4.45985 2.87644C4.14021 2.55681 3.82391 2.23384 3.50094 1.91754C2.97821 1.40812 2.32562 1.40812 1.80621 1.92087C1.40667 2.31375 1.02377 2.71662 0.61757 3.10285C0.241333 3.45911 0.0515499 3.89528 0.0115955 4.4047C-0.0516656 5.23375 0.151436 6.01619 0.437775 6.77865C1.02377 8.35685 1.91609 9.75858 2.99818 11.0438C4.45985 12.7818 6.20452 14.1569 8.24553 15.1491C9.16448 15.5952 10.1167 15.9382 11.1522 15.9948C11.8647 16.0347 12.484 15.855 12.9801 15.2989C13.3197 14.9194 13.7026 14.5731 14.0622 14.2102C14.5949 13.6708 14.5983 13.0182 14.0689 12.4855C13.4363 11.8495 12.8003 11.2169 12.1644 10.5843Z" fill="#99E0FF"></path>
  <path d="M11.5284 7.93064L12.757 7.72088C12.5639 6.59217 12.0312 5.57 11.2221 4.75759C10.3664 3.90191 9.28434 3.36252 8.09237 3.19604L7.91924 4.4313C8.84152 4.56115 9.68056 4.97734 10.3431 5.63992C10.9691 6.26587 11.3786 7.0583 11.5284 7.93064Z" fill="#99E0FF"></path>
  <path d="M13.4496 2.59013C12.0312 1.17175 10.2366 0.276107 8.25552 -0.000244141L8.08238 1.23501C9.79376 1.47474 11.3453 2.25052 12.5706 3.47246C13.7326 4.63446 14.4951 6.10279 14.7714 7.71761L16 7.50785C15.677 5.63665 14.7947 3.93859 13.4496 2.59013Z" fill="#99E0FF"></path>
</svg>
