<?xml version="1.0" encoding="UTF-8"?>
<svg xmlns="http://www.w3.org/2000/svg" width="38" height="38" viewBox="0 0 38 38" fill="none">
  <path d="M19 38C29.4934 38 38 29.4934 38 19C38 8.50659 29.4934 0 19 0C8.50659 0 0 8.50659 0 19C0 29.4934 8.50659 38 19 38Z" fill="#262D28"></path>
  <path d="M17.7963 20.2035C19.5116 21.9187 21.1927 22.6146 21.7982 22.0091L22.6297 21.1778C22.9047 20.9027 23.2778 20.7482 23.6667 20.7482C24.0557 20.7482 24.4287 20.9027 24.7038 21.1778L26.5705 23.0445C26.8455 23.3195 27 23.6925 27 24.0815C27 24.4705 26.8455 24.8435 26.5705 25.1186L25.1161 26.5729C23.7419 27.9471 19.6776 26.1128 15.7823 22.2177C13.8356 20.27 12.5589 18.4355 11.7336 16.7105C10.9084 14.9855 10.7412 13.5706 11.4279 12.8839L12.8822 11.4295C13.1573 11.1545 13.5303 11 13.9193 11C14.3082 11 14.6813 11.1545 14.9563 11.4295L16.823 13.2956C17.098 13.5707 17.2525 13.9437 17.2525 14.3327C17.2525 14.7217 17.098 15.0947 16.823 15.3697L15.9909 16.2032C15.3854 16.8081 16.0811 18.489 17.7963 20.2035Z" fill="#EEEFEE"></path>
</svg>
