<?xml version="1.0" encoding="UTF-8"?>
<svg xmlns="http://www.w3.org/2000/svg" width="12" height="16" viewBox="0 0 12 16" fill="none">
  <path d="M8.66667 3.18196C8.66696 3.39888 8.75329 3.60683 8.90671 3.76018C9.06013 3.91353 9.26811 3.99976 9.48503 3.99996H11.8566C11.7304 3.60216 11.5118 3.23986 11.2188 2.94267L9.72396 1.44788C9.42609 1.1563 9.06395 0.938672 8.66667 0.8125V3.18196Z" fill="#99E0FF"></path>
  <path d="M9.48503 5.33342C8.91436 5.33342 8.36707 5.10672 7.96355 4.7032C7.56003 4.29968 7.33333 3.75239 7.33333 3.18172V0.666748H2C1.46957 0.666748 0.960859 0.877462 0.585787 1.25253C0.210714 1.62761 0 2.13632 0 2.66675V13.3334C0 13.8638 0.210714 14.3726 0.585787 14.7476C0.960859 15.1227 1.46957 15.3334 2 15.3334H10C10.5304 15.3334 11.0391 15.1227 11.4142 14.7476C11.7893 14.3726 12 13.8638 12 13.3334V5.33342H9.48503ZM2.24414 2.91081C2.36069 2.79427 2.50917 2.71491 2.67082 2.68276C2.83247 2.65061 3.00002 2.66711 3.15229 2.73019C3.30456 2.79326 3.43471 2.90007 3.52627 3.03711C3.61784 3.17415 3.66671 3.33527 3.66671 3.50008C3.66671 3.6649 3.61784 3.82601 3.52627 3.96305C3.43471 4.10009 3.30456 4.2069 3.15229 4.26998C3.00002 4.33305 2.83247 4.34956 2.67082 4.31741C2.50917 4.28526 2.36069 4.20589 2.24414 4.08935C2.16674 4.01198 2.10535 3.92011 2.06346 3.819C2.02157 3.71789 2.00001 3.60952 2.00001 3.50008C2.00001 3.39064 2.02157 3.28227 2.06346 3.18116C2.10535 3.08005 2.16674 2.98818 2.24414 2.91081ZM1.862 6.19542L5.19533 2.86208C5.32072 2.73894 5.48967 2.6703 5.66542 2.6711C5.84116 2.67189 6.00948 2.74206 6.13375 2.86633C6.25802 2.9906 6.32819 3.15892 6.32898 3.33467C6.32978 3.51041 6.26114 3.67936 6.138 3.80475L2.80467 7.13808C2.67928 7.26122 2.51033 7.32986 2.33458 7.32907C2.15884 7.32827 1.99052 7.2581 1.86625 7.13383C1.74198 7.00956 1.67181 6.84124 1.67102 6.6655C1.67022 6.48975 1.73886 6.32081 1.862 6.19542ZM5.75588 7.08937C5.63933 7.20591 5.49085 7.28528 5.3292 7.31743C5.16755 7.34958 5 7.33307 4.84773 7.27C4.69546 7.20692 4.56531 7.10011 4.47375 6.96307C4.38218 6.82603 4.33331 6.66492 4.33331 6.5001C4.33331 6.33529 4.38218 6.17417 4.47375 6.03713C4.56531 5.90009 4.69546 5.79328 4.84773 5.73021C5 5.66713 5.16755 5.65063 5.3292 5.68278C5.49085 5.71493 5.63933 5.79429 5.75588 5.91083C5.83327 5.98821 5.89467 6.08007 5.93655 6.18118C5.97844 6.28229 5.99999 6.39066 5.99999 6.5001C5.99999 6.60954 5.97843 6.7179 5.93654 6.81901C5.89465 6.92012 5.83328 7.012 5.75588 7.08937ZM9.27273 13.3334H2.72727C2.63485 13.3415 2.54175 13.3302 2.45391 13.3004C2.36606 13.2705 2.28538 13.2227 2.21699 13.1601C2.1486 13.0974 2.09399 13.0211 2.05663 12.9362C2.01927 12.8513 1.99998 12.7595 1.99998 12.6667C1.99998 12.574 2.01927 12.4822 2.05663 12.3973C2.09399 12.3124 2.1486 12.2361 2.21699 12.1734C2.28538 12.1108 2.36606 12.063 2.45391 12.0331C2.54175 12.0033 2.63485 11.992 2.72727 12.0001H9.27273C9.36515 11.992 9.45825 12.0033 9.54609 12.0331C9.63394 12.063 9.71462 12.1108 9.78301 12.1734C9.8514 12.2361 9.90601 12.3124 9.94337 12.3973C9.98073 12.4822 10 12.574 10 12.6667C10 12.7595 9.98073 12.8513 9.94337 12.9362C9.90601 13.0211 9.8514 13.0974 9.78301 13.1601C9.71462 13.2227 9.63394 13.2705 9.54609 13.3004C9.45825 13.3302 9.36515 13.3415 9.27273 13.3334ZM9.27273 10.3334H2.72727C2.63485 10.3415 2.54175 10.3302 2.45391 10.3004C2.36606 10.2705 2.28538 10.2227 2.21699 10.1601C2.1486 10.0974 2.09399 10.0211 2.05663 9.93621C2.01927 9.85129 1.99998 9.75953 1.99998 9.66675C1.99998 9.57397 2.01927 9.48221 2.05663 9.39729C2.09399 9.31236 2.1486 9.23614 2.21699 9.17344C2.28538 9.11075 2.36606 9.06297 2.45391 9.03312C2.54175 9.00328 2.63485 8.99203 2.72727 9.00008H9.27273C9.36515 8.99203 9.45825 9.00328 9.54609 9.03312C9.63394 9.06297 9.71462 9.11075 9.78301 9.17344C9.8514 9.23614 9.90601 9.31236 9.94337 9.39729C9.98073 9.48221 10 9.57397 10 9.66675C10 9.75953 9.98073 9.85129 9.94337 9.93621C9.90601 10.0211 9.8514 10.0974 9.78301 10.1601C9.71462 10.2227 9.63394 10.2705 9.54609 10.3004C9.45825 10.3302 9.36515 10.3415 9.27273 10.3334Z" fill="#99E0FF"></path>
</svg>
