<?xml version="1.0" encoding="UTF-8"?>
<svg xmlns="http://www.w3.org/2000/svg" width="38" height="38" viewBox="0 0 38 38" fill="none">
  <g clip-path="url(#clip0_98_4045)">
    <path d="M19 38C29.4934 38 38 29.4934 38 19C38 8.50659 29.4934 0 19 0C8.50659 0 0 8.50659 0 19C0 29.4934 8.50659 38 19 38Z" fill="#262D28"></path>
    <path d="M30.875 18.5531C30.875 24.6267 25.5572 29.5494 19 29.5494C17.8488 29.5501 16.7028 29.3954 15.593 29.0895L11.549 31.3069V27.1139C8.85227 25.0995 7.125 22.0228 7.125 18.5531C7.125 12.4796 12.4428 7.55688 19 7.55688C25.5572 7.55688 30.875 12.4818 30.875 18.5531Z" fill="#EEEFEE"></path>
    <path d="M26.6713 15.4744L20.1789 22.3619L17.1562 19.1383L11.2554 22.364L17.7478 15.4744L20.8461 18.6979L26.6713 15.4744Z" fill="#262D28"></path>
  </g>
  <defs>
    <clipPath id="clip0_98_4045">
      <rect width="38" height="38" fill="white"></rect>
    </clipPath>
  </defs>
</svg>
