<svg width="30" height="31" viewBox="0 0 30 31" fill="none" xmlns="http://www.w3.org/2000/svg">
<g clip-path="url(#clip0_12_668)">
<path d="M15 0.5C8.66748 0.5 3.51562 5.65186 3.51562 11.9844C3.51562 14.0114 4.05117 16.0042 5.06432 17.7474C5.30051 18.1538 5.56453 18.5498 5.84918 18.9245L14.501 30.5H15.4989L24.1508 18.9246C24.4354 18.5498 24.6994 18.1538 24.9357 17.7474C25.9488 16.0042 26.4844 14.0114 26.4844 11.9844C26.4844 5.65186 21.3325 0.5 15 0.5ZM15 15.793C12.8999 15.793 11.1914 14.0844 11.1914 11.9844C11.1914 9.88432 12.8999 8.17578 15 8.17578C17.1001 8.17578 18.8086 9.88432 18.8086 11.9844C18.8086 14.0844 17.1001 15.793 15 15.793Z" fill="#127FAF"/>
</g>
<defs>
<clipPath id="clip0_12_668">
<rect width="30" height="30" fill="white" transform="translate(0 0.5)"/>
</clipPath>
</defs>
</svg>
