<svg width="20" height="20" viewBox="0 0 20 20" fill="none" xmlns="http://www.w3.org/2000/svg">
<g clip-path="url(#clip0_58_886)">
<path d="M13.3574 12.8264C12.8836 12.8264 12.498 12.4928 12.498 12.0827C12.498 11.6725 12.8836 11.3388 13.3574 11.3388C13.8313 11.3388 14.2168 11.6725 14.2168 12.0827C14.2168 12.2984 14.3917 12.4733 14.6074 12.4733C14.8231 12.4733 14.998 12.2984 14.998 12.0827C14.998 11.3668 14.4647 10.765 13.748 10.6016V10.3984C13.748 10.1827 13.5731 10.0078 13.3574 10.0078C13.1417 10.0078 12.9668 10.1827 12.9668 10.3984V10.6016C12.2502 10.765 11.7168 11.3668 11.7168 12.0827C11.7168 12.9235 12.4528 13.6077 13.3574 13.6077C13.8313 13.6077 14.2168 13.9414 14.2168 14.3515C14.2168 14.7617 13.8313 15.0953 13.3574 15.0953C12.8836 15.0953 12.498 14.7617 12.498 14.3515C12.498 14.1358 12.3231 13.9609 12.1074 13.9609C11.8917 13.9609 11.7168 14.1358 11.7168 14.3515C11.7168 15.0673 12.2502 15.6692 12.9668 15.8326V16.0013C12.9668 16.217 13.1417 16.3919 13.3574 16.3919C13.5731 16.3919 13.748 16.217 13.748 16.0013V15.8326C14.4647 15.6692 14.998 15.0673 14.998 14.3515C14.998 13.5106 14.2621 12.8264 13.3574 12.8264Z" fill="#127FAF"/>
<path d="M17.636 10.5029C17.1258 9.70783 16.4069 9.07158 15.5571 8.66307C15.3626 8.56955 15.1292 8.65143 15.0357 8.84588C14.9423 9.04034 15.0241 9.27369 15.2185 9.36717C16.6994 10.079 17.6563 11.6001 17.6563 13.2422C17.6563 13.9449 17.4831 14.6417 17.1555 15.2575C17.0541 15.4479 17.1264 15.6845 17.3168 15.7858C17.3753 15.8169 17.4381 15.8316 17.4999 15.8316C17.6397 15.8316 17.7749 15.7564 17.8451 15.6244C18.2327 14.8961 18.4375 14.0724 18.4375 13.2422C18.4375 12.2672 18.1604 11.32 17.636 10.5029Z" fill="#127FAF"/>
<path d="M13.9716 8.1641L13.9453 8.16406C13.7296 8.16406 13.5547 8.33894 13.5547 8.55469C13.5547 8.77043 13.7296 8.94531 13.9453 8.94531L13.9679 8.94535C13.9686 8.94535 13.9691 8.94535 13.9698 8.94535C14.1847 8.94535 14.3594 8.77168 14.3604 8.55656C14.3614 8.34082 14.1873 8.16512 13.9716 8.1641Z" fill="#127FAF"/>
<path d="M11.5002 17.1172C10.0193 16.4053 9.0625 14.8842 9.0625 13.2422C9.0625 12.5395 9.2357 11.8427 9.56332 11.2269C9.66465 11.0365 9.59242 10.7999 9.40195 10.6986C9.21156 10.5972 8.97492 10.6695 8.87363 10.8599C8.48609 11.5882 8.28125 12.412 8.28125 13.2422C8.28125 14.2171 8.5584 15.1643 9.08273 15.9814C9.59301 16.7765 10.3119 17.4128 11.1617 17.8213C11.2163 17.8476 11.2739 17.86 11.3307 17.86C11.4762 17.86 11.6158 17.7784 11.683 17.6385C11.7764 17.4441 11.6946 17.2107 11.5002 17.1172Z" fill="#127FAF"/>
<path d="M12.7734 17.539L12.7508 17.5389C12.5341 17.5386 12.3594 17.7119 12.3584 17.9277C12.3574 18.1435 12.5315 18.3192 12.7472 18.3202L12.7734 18.3203C12.9891 18.3203 13.164 18.1453 13.164 17.9296C13.164 17.7139 12.9891 17.539 12.7734 17.539Z" fill="#127FAF"/>
<path d="M15.1331 6.84249C15.0856 6.72921 15.0274 6.62245 14.9596 6.52343H15.9765C16.9673 6.52343 17.7734 5.71733 17.7734 4.72655C17.7734 3.73577 16.9673 2.92968 15.9765 2.92968H12.8484C13.0473 2.64054 13.164 2.29074 13.164 1.91406C13.164 0.92328 12.3579 0.117188 11.3672 0.117188H1.79687C0.806092 0.117188 0 0.92328 0 1.91406C0 2.90484 0.806092 3.71093 1.79687 3.71093H4.92499C4.72612 4.00007 4.60937 4.34987 4.60937 4.72655C4.60937 5.10323 4.72608 5.45304 4.92499 5.74218H3.90624C2.91546 5.74218 2.10937 6.54827 2.10937 7.53905C2.10937 8.10807 2.37554 8.61584 2.78964 8.9453C2.37554 9.27475 2.10937 9.78252 2.10937 10.3515C2.10937 10.9206 2.37554 11.4283 2.78964 11.7578C2.37554 12.0872 2.10937 12.595 2.10937 13.164C2.10937 13.7331 2.37554 14.2408 2.78964 14.5703C2.37554 14.8997 2.10937 15.4075 2.10937 15.9765C2.10937 16.9673 2.91546 17.7734 3.90624 17.7734H8.50975C9.72248 19.0705 11.4477 19.8828 13.3594 19.8828C17.021 19.8828 20 16.9038 20 13.2422C20 10.1947 17.9363 7.62042 15.1331 6.84249ZM15.9765 3.71093C16.5366 3.71093 16.9922 4.16655 16.9922 4.72655C16.9922 5.28655 16.5366 5.74218 15.9765 5.74218H13.4765H6.40624C5.8462 5.74218 5.39061 5.28655 5.39061 4.72655C5.39061 4.16655 5.8462 3.71093 6.40624 3.71093H15.9765ZM1.79687 2.92968C1.23683 2.92968 0.781249 2.47406 0.781249 1.91406C0.781249 1.35406 1.23683 0.898436 1.79687 0.898436H11.3672C11.9272 0.898436 12.3828 1.35406 12.3828 1.91406C12.3828 2.47406 11.9272 2.92968 11.3672 2.92968H1.79687ZM3.90624 6.52343H13.4765C13.6339 6.52343 13.7845 6.55999 13.9197 6.62546C13.7349 6.60995 13.5481 6.60159 13.3594 6.60159C11.5256 6.60159 9.86311 7.34881 8.66022 8.55467H3.90624C3.34624 8.55467 2.89062 8.09905 2.89062 7.53905C2.89062 6.97905 3.34624 6.52343 3.90624 6.52343ZM3.90624 9.33592H7.99276C7.54932 9.94346 7.20647 10.6287 6.98874 11.3672H3.90624C3.3462 11.3672 2.89062 10.9116 2.89062 10.3515C2.89062 9.79154 3.3462 9.33592 3.90624 9.33592ZM3.90624 12.1484H6.80936C6.7501 12.5044 6.71878 12.8697 6.71878 13.2422C6.71878 13.5604 6.74178 13.8733 6.78526 14.1797H3.90624C3.3462 14.1797 2.89062 13.7241 2.89062 13.164C2.89062 12.604 3.3462 12.1484 3.90624 12.1484ZM3.90624 16.9922C3.3462 16.9922 2.89062 16.5366 2.89062 15.9765C2.89062 15.4165 3.3462 14.9609 3.90624 14.9609H6.94475C7.14186 15.6958 7.46206 16.3807 7.88198 16.9922H3.90624ZM13.3594 19.1016C10.1285 19.1016 7.50002 16.4731 7.50002 13.2422C7.50002 10.0113 10.1285 7.38284 13.3594 7.38284C16.5902 7.38284 19.2188 10.0113 19.2188 13.2422C19.2188 16.4731 16.5902 19.1016 13.3594 19.1016Z" fill="#127FAF"/>
</g>
<defs>
<clipPath id="clip0_58_886">
<rect width="20" height="20" fill="white"/>
</clipPath>
</defs>
</svg>
