<svg width="30" height="33" viewBox="0 0 30 33" fill="none" xmlns="http://www.w3.org/2000/svg">
<path d="M27.5 2.75H23.75V1.5C23.75 1.16848 23.6182 0.850538 23.3839 0.616113C23.1495 0.3817 22.8315 0.25 22.5 0.25C22.1685 0.25 21.8505 0.3817 21.6161 0.616113C21.3818 0.850538 21.25 1.16848 21.25 1.5V2.75H8.75V1.5C8.75 1.16848 8.61825 0.850538 8.38387 0.616113C8.1495 0.3817 7.8315 0.25 7.5 0.25C7.16848 0.25 6.85054 0.3817 6.61611 0.616113C6.3817 0.850538 6.25 1.16848 6.25 1.5V2.75H2.5C1.83696 2.75 1.20108 3.01339 0.732238 3.48224C0.263388 3.95108 0 4.58696 0 5.25V30.25C0 30.913 0.263388 31.5489 0.732238 32.0177C1.20108 32.4866 1.83696 32.75 2.5 32.75H27.5C28.163 32.75 28.7989 32.4866 29.2677 32.0177C29.7366 31.5489 30 30.913 30 30.25V5.25C30 4.58696 29.7366 3.95108 29.2677 3.48224C28.7989 3.01339 28.163 2.75 27.5 2.75ZM21.4844 18.6563L14.1875 25.5313C14.074 25.6425 13.9398 25.7301 13.7923 25.7891C13.6448 25.8481 13.487 25.8772 13.3281 25.875C13.0079 25.8763 12.6998 25.753 12.4688 25.5313L8.51562 21.7813C8.38863 21.6705 8.28538 21.5351 8.212 21.3834C8.13863 21.2318 8.09675 21.0667 8.08875 20.8984C8.08087 20.7301 8.107 20.5619 8.16563 20.4039C8.22438 20.246 8.31437 20.1015 8.43037 19.9792C8.54637 19.857 8.68575 19.7594 8.84037 19.6924C8.995 19.6254 9.16162 19.5904 9.33012 19.5894C9.49862 19.5884 9.66563 19.6215 9.821 19.6866C9.97638 19.7519 10.117 19.8479 10.2344 19.9687L13.3281 22.9062L19.7656 16.8437C19.8836 16.7291 20.0235 16.6393 20.1767 16.5794C20.3301 16.5196 20.4937 16.491 20.6582 16.4954C20.8229 16.4997 20.9848 16.537 21.1348 16.6049C21.2846 16.6728 21.4195 16.7699 21.5313 16.8906C21.7589 17.1311 21.8819 17.4521 21.873 17.7831C21.8642 18.1141 21.7245 18.4281 21.4844 18.6563ZM27.5 10.25H2.5V5.25H6.25V6.5C6.25 6.83152 6.3817 7.14946 6.61611 7.38389C6.85054 7.6183 7.16848 7.75 7.5 7.75C7.8315 7.75 8.1495 7.6183 8.38387 7.38389C8.61825 7.14946 8.75 6.83152 8.75 6.5V5.25H21.25V6.5C21.25 6.83152 21.3818 7.14946 21.6161 7.38389C21.8505 7.6183 22.1685 7.75 22.5 7.75C22.8315 7.75 23.1495 7.6183 23.3839 7.38389C23.6182 7.14946 23.75 6.83152 23.75 6.5V5.25H27.5V10.25Z" fill="#127FAF"/>
</svg>
